<svg width="428" height="310" viewBox="0 0 428 310" fill="none" xmlns="http://www.w3.org/2000/svg">
<path d="M398.119 2H29.881C16.1396 2 5 12.4128 5 25.2576V285.742C5 298.587 16.1396 309 29.881 309H398.119C411.86 309 423 298.587 423 285.742V25.2576C423 12.4128 411.86 2 398.119 2Z" fill="#1D1D1D" stroke="#3C3C3C" stroke-width="2"/>
<g filter="url(#filter0_d_28_62)">
<path d="M4 25C4 11.1929 15.1929 0 29 0H399C412.807 0 424 11.1929 424 25V55H4V25Z" fill="#282828"/>
<path d="M29 1H399C412.255 1 423 11.7452 423 25V54H5V25C5 11.7452 15.7452 1 29 1Z" stroke="#3B3B3B" stroke-width="2"/>
</g>
<path d="M64 65C69.5228 65 74 60.5228 74 55C74 49.4772 69.5228 45 64 45C58.4772 45 54 49.4772 54 55C54 60.5228 58.4772 65 64 65Z" fill="#1D1D1D" stroke="#5A5A5A" stroke-width="2"/>
<path d="M124 65C129.523 65 134 60.5228 134 55C134 49.4772 129.523 45 124 45C118.477 45 114 49.4772 114 55C114 60.5228 118.477 65 124 65Z" fill="#1D1D1D" stroke="#5A5A5A" stroke-width="2"/>
<path d="M184 65C189.523 65 194 60.5228 194 55C194 49.4772 189.523 45 184 45C178.477 45 174 49.4772 174 55C174 60.5228 178.477 65 184 65Z" fill="#1D1D1D" stroke="#5A5A5A" stroke-width="2"/>
<path d="M244 65C249.523 65 254 60.5228 254 55C254 49.4772 249.523 45 244 45C238.477 45 234 49.4772 234 55C234 60.5228 238.477 65 244 65Z" fill="#1D1D1D" stroke="#5A5A5A" stroke-width="2"/>
<path d="M304 65C309.523 65 314 60.5228 314 55C314 49.4772 309.523 45 304 45C298.477 45 294 49.4772 294 55C294 60.5228 298.477 65 304 65Z" fill="#1D1D1D" stroke="#5A5A5A" stroke-width="2"/>
<path d="M364 65C369.523 65 374 60.5228 374 55C374 49.4772 369.523 45 364 45C358.477 45 354 49.4772 354 55C354 60.5228 358.477 65 364 65Z" fill="#1D1D1D" stroke="#5A5A5A" stroke-width="2"/>
<path d="M114 81H57C52.5817 81 49 84.5817 49 89V127.667C49 132.085 52.5817 135.667 57 135.667H114C118.418 135.667 122 132.085 122 127.667V89C122 84.5817 118.418 81 114 81Z" fill="#282828" stroke="#3C3C3C"/>
<path d="M199 81H142C137.582 81 134 84.5817 134 89V127.667C134 132.085 137.582 135.667 142 135.667H199C203.418 135.667 207 132.085 207 127.667V89C207 84.5817 203.418 81 199 81Z" fill="#282828" stroke="#3C3C3C"/>
<path d="M284 81H227C222.582 81 219 84.5817 219 89V127.667C219 132.085 222.582 135.667 227 135.667H284C288.418 135.667 292 132.085 292 127.667V89C292 84.5817 288.418 81 284 81Z" fill="#282828" stroke="#3C3C3C"/>
<path d="M369 81H312C307.582 81 304 84.5817 304 89V127.667C304 132.085 307.582 135.667 312 135.667H369C373.418 135.667 377 132.085 377 127.667V89C377 84.5817 373.418 81 369 81Z" fill="#282828" stroke="#3C3C3C"/>
<path d="M114 147.667H57C52.5817 147.667 49 151.248 49 155.667V194.333C49 198.752 52.5817 202.333 57 202.333H114C118.418 202.333 122 198.752 122 194.333V155.667C122 151.248 118.418 147.667 114 147.667Z" fill="#282828" stroke="#3C3C3C"/>
<path d="M199 147.667H142C137.582 147.667 134 151.248 134 155.667V194.333C134 198.752 137.582 202.333 142 202.333H199C203.418 202.333 207 198.752 207 194.333V155.667C207 151.248 203.418 147.667 199 147.667Z" fill="#282828" stroke="#3C3C3C"/>
<path d="M284 147.667H227C222.582 147.667 219 151.248 219 155.667V194.333C219 198.752 222.582 202.333 227 202.333H284C288.418 202.333 292 198.752 292 194.333V155.667C292 151.248 288.418 147.667 284 147.667Z" fill="#282828" stroke="#3C3C3C"/>
<path d="M369 147.667H312C307.582 147.667 304 151.248 304 155.667V194.333C304 198.752 307.582 202.333 312 202.333H369C373.418 202.333 377 198.752 377 194.333V155.667C377 151.248 373.418 147.667 369 147.667Z" fill="#282828" stroke="#3C3C3C"/>
<path d="M114 214.333H57C52.5817 214.333 49 217.915 49 222.333V261C49 265.418 52.5817 269 57 269H114C118.418 269 122 265.418 122 261V222.333C122 217.915 118.418 214.333 114 214.333Z" fill="#282828" stroke="#3C3C3C"/>
<path d="M199 214.333H142C137.582 214.333 134 217.915 134 222.333V261C134 265.418 137.582 269 142 269H199C203.418 269 207 265.418 207 261V222.333C207 217.915 203.418 214.333 199 214.333Z" fill="#282828" stroke="#3C3C3C"/>
<path d="M284 214.333H227C222.582 214.333 219 217.915 219 222.333V261C219 265.418 222.582 269 227 269H284C288.418 269 292 265.418 292 261V222.333C292 217.915 288.418 214.333 284 214.333Z" fill="#282828" stroke="#3C3C3C"/>
<path d="M369 214.333H312C307.582 214.333 304 217.915 304 222.333V261C304 265.418 307.582 269 312 269H369C373.418 269 377 265.418 377 261V222.333C377 217.915 373.418 214.333 369 214.333Z" fill="#282828" stroke="#3C3C3C"/>
<path d="M116.167 95H67.8333C65.164 95 63 97.2386 63 100V122C63 124.761 65.164 127 67.8333 127H116.167C118.836 127 121 124.761 121 122V100C121 97.2386 118.836 95 116.167 95Z" fill="#FF6382"/>
<path d="M74.4771 118H72.6305L77.9714 103.455H79.7896L85.1305 118H83.2839L78.9373 105.756H78.8237L74.4771 118ZM75.1589 112.318H82.6021V113.881H75.1589V112.318ZM96.6557 108C96.4995 107.522 96.2935 107.093 96.0378 106.714C95.7869 106.331 95.4862 106.004 95.1358 105.734C94.7902 105.464 94.3972 105.259 93.9569 105.116C93.5165 104.974 93.0336 104.903 92.508 104.903C91.6462 104.903 90.8626 105.126 90.1571 105.571C89.4516 106.016 88.8906 106.672 88.4739 107.538C88.0572 108.405 87.8489 109.468 87.8489 110.727C87.8489 111.987 88.0596 113.05 88.481 113.916C88.9024 114.783 89.473 115.438 90.1926 115.884C90.9123 116.329 91.722 116.551 92.6216 116.551C93.455 116.551 94.1889 116.374 94.8233 116.018C95.4625 115.659 95.9597 115.152 96.3148 114.499C96.6747 113.84 96.8546 113.066 96.8546 112.176L97.3944 112.29H93.0194V110.727H98.5591V112.29C98.5591 113.488 98.3034 114.529 97.7921 115.415C97.2855 116.3 96.5847 116.987 95.6898 117.474C94.7997 117.957 93.7769 118.199 92.6216 118.199C91.3337 118.199 90.2021 117.896 89.2267 117.29C88.2561 116.684 87.4985 115.822 86.954 114.705C86.4142 113.587 86.1444 112.261 86.1444 110.727C86.1444 109.577 86.2982 108.542 86.606 107.624C86.9185 106.7 87.3588 105.914 87.927 105.266C88.4952 104.617 89.1676 104.12 89.9441 103.774C90.7206 103.429 91.5752 103.256 92.508 103.256C93.275 103.256 93.99 103.372 94.6529 103.604C95.3205 103.831 95.9147 104.155 96.4355 104.577C96.9611 104.993 97.3991 105.493 97.7495 106.075C98.0998 106.653 98.3413 107.295 98.4739 108H96.6557ZM101.723 118H99.8766L105.218 103.455H107.036L112.377 118H110.53L106.183 105.756H106.07L101.723 118ZM102.405 112.318H109.848V113.881H102.405V112.318Z" fill="#141414"/>
<path d="M201.167 95H152.833C150.164 95 148 97.2386 148 100V122C148 124.761 150.164 127 152.833 127H201.167C203.836 127 206 124.761 206 122V100C206 97.2386 203.836 95 201.167 95Z" fill="#95C8EC"/>
<path d="M161.557 118H159.711L165.051 103.455H166.87L172.211 118H170.364L166.017 105.756H165.904L161.557 118ZM162.239 112.318H169.682V113.881H162.239V112.318ZM174.476 103.455H176.578L181.522 115.528H181.692L186.635 103.455H188.738V118H187.09V106.949H186.948L182.402 118H180.811L176.266 106.949H176.124V118H174.476V103.455ZM194.031 103.455V118H192.269V103.455H194.031Z" fill="#141414"/>
<path d="M286.167 95H237.833C235.164 95 233 97.2386 233 100V122C233 124.761 235.164 127 237.833 127H286.167C288.836 127 291 124.761 291 122V100C291 97.2386 288.836 95 286.167 95Z" fill="#78C896"/>
<path d="M247.007 103.455V118H245.246V103.455H247.007ZM258.493 107.091C258.408 106.371 258.062 105.812 257.456 105.415C256.85 105.017 256.107 104.818 255.226 104.818C254.582 104.818 254.019 104.922 253.536 105.131C253.058 105.339 252.684 105.625 252.414 105.99C252.149 106.355 252.016 106.769 252.016 107.233C252.016 107.621 252.108 107.955 252.293 108.234C252.482 108.509 252.724 108.739 253.017 108.923C253.311 109.103 253.619 109.252 253.941 109.371C254.263 109.484 254.559 109.577 254.828 109.648L256.306 110.045C256.685 110.145 257.106 110.282 257.57 110.457C258.039 110.633 258.486 110.872 258.912 111.175C259.343 111.473 259.698 111.857 259.978 112.325C260.257 112.794 260.397 113.369 260.397 114.051C260.397 114.837 260.191 115.547 259.779 116.182C259.372 116.816 258.775 117.321 257.989 117.695C257.208 118.069 256.258 118.256 255.141 118.256C254.099 118.256 253.197 118.088 252.435 117.751C251.677 117.415 251.081 116.946 250.645 116.345C250.214 115.744 249.971 115.045 249.914 114.25H251.732C251.779 114.799 251.964 115.254 252.286 115.614C252.613 115.969 253.025 116.234 253.522 116.409C254.024 116.58 254.563 116.665 255.141 116.665C255.813 116.665 256.417 116.556 256.952 116.338C257.487 116.116 257.911 115.808 258.223 115.415C258.536 115.017 258.692 114.553 258.692 114.023C258.692 113.54 258.557 113.147 258.287 112.844C258.017 112.541 257.662 112.295 257.222 112.105C256.782 111.916 256.306 111.75 255.794 111.608L254.005 111.097C252.868 110.77 251.969 110.304 251.306 109.697C250.643 109.091 250.311 108.298 250.311 107.318C250.311 106.504 250.532 105.794 250.972 105.188C251.417 104.577 252.014 104.103 252.762 103.767C253.515 103.426 254.355 103.256 255.283 103.256C256.221 103.256 257.054 103.424 257.783 103.76C258.512 104.091 259.09 104.546 259.516 105.124C259.947 105.701 260.174 106.357 260.198 107.091H258.493ZM265.935 118L261.957 103.455H263.747L266.787 115.301H266.929L270.026 103.455H272.014L275.111 115.301H275.253L278.293 103.455H280.082L276.105 118H274.287L271.077 106.409H270.963L267.753 118H265.935Z" fill="#141414"/>
<path d="M116.167 162H67.8333C65.164 162 63 164.239 63 167V189C63 191.761 65.164 194 67.8333 194H116.167C118.836 194 121 191.761 121 189V167C121 164.239 118.836 162 116.167 162Z" fill="#ECC076"/>
<path d="M81.8375 185V170.455H90.5591V172.017H83.5989V176.932H89.9057V178.494H83.5989V185H81.8375ZM93.3201 185V183.722L98.1213 178.466C98.6847 177.85 99.1487 177.315 99.5133 176.861C99.8779 176.402 100.148 175.971 100.323 175.568C100.503 175.161 100.593 174.735 100.593 174.29C100.593 173.778 100.47 173.336 100.224 172.962C99.9821 172.588 99.6506 172.299 99.2292 172.095C98.8078 171.892 98.3343 171.79 97.8088 171.79C97.2501 171.79 96.7624 171.906 96.3457 172.138C95.9338 172.365 95.6142 172.685 95.3869 173.097C95.1644 173.509 95.0531 173.991 95.0531 174.545H93.377C93.377 173.693 93.5734 172.945 93.9664 172.301C94.3594 171.657 94.8945 171.155 95.5716 170.795C96.2534 170.436 97.0181 170.256 97.8656 170.256C98.7179 170.256 99.4731 170.436 100.131 170.795C100.789 171.155 101.305 171.641 101.68 172.251C102.054 172.862 102.241 173.542 102.241 174.29C102.241 174.825 102.144 175.348 101.949 175.859C101.76 176.366 101.429 176.932 100.955 177.557C100.486 178.177 99.8353 178.935 99.002 179.83L95.7349 183.324V183.438H102.496V185H93.3201Z" fill="#141414"/>
<path d="M201.167 162H152.833C150.164 162 148 164.239 148 167V189C148 191.761 150.164 194 152.833 194H201.167C203.836 194 206 191.761 206 189V167C206 164.239 203.836 162 201.167 162Z" fill="#A073EB"/>
<path d="M162.498 185H158.009V170.455H162.697C164.108 170.455 165.315 170.746 166.319 171.328C167.323 171.906 168.092 172.737 168.627 173.821C169.162 174.901 169.43 176.193 169.43 177.699C169.43 179.214 169.16 180.518 168.62 181.612C168.08 182.701 167.294 183.539 166.262 184.126C165.23 184.709 163.975 185 162.498 185ZM159.771 183.438H162.384C163.587 183.438 164.584 183.205 165.374 182.741C166.165 182.277 166.755 181.617 167.143 180.76C167.531 179.903 167.725 178.883 167.725 177.699C167.725 176.525 167.534 175.514 167.15 174.666C166.767 173.814 166.194 173.161 165.431 172.706C164.669 172.247 163.72 172.017 162.583 172.017H159.771V183.438ZM176.873 185H172.384V170.455H177.072C178.483 170.455 179.69 170.746 180.694 171.328C181.698 171.906 182.467 172.737 183.002 173.821C183.537 174.901 183.805 176.193 183.805 177.699C183.805 179.214 183.535 180.518 182.995 181.612C182.455 182.701 181.669 183.539 180.637 184.126C179.605 184.709 178.35 185 176.873 185ZM174.146 183.438H176.759C177.962 183.438 178.959 183.205 179.749 182.741C180.54 182.277 181.13 181.617 181.518 180.76C181.906 179.903 182.1 178.883 182.1 177.699C182.1 176.525 181.909 175.514 181.525 174.666C181.142 173.814 180.569 173.161 179.806 172.706C179.044 172.247 178.095 172.017 176.958 172.017H174.146V183.438ZM194.714 174.091C194.629 173.371 194.283 172.812 193.677 172.415C193.071 172.017 192.328 171.818 191.447 171.818C190.803 171.818 190.24 171.922 189.757 172.131C189.278 172.339 188.904 172.625 188.634 172.99C188.369 173.355 188.237 173.769 188.237 174.233C188.237 174.621 188.329 174.955 188.514 175.234C188.703 175.509 188.945 175.739 189.238 175.923C189.532 176.103 189.839 176.252 190.161 176.371C190.483 176.484 190.779 176.577 191.049 176.648L192.526 177.045C192.905 177.145 193.327 177.282 193.791 177.457C194.259 177.633 194.707 177.872 195.133 178.175C195.564 178.473 195.919 178.857 196.198 179.325C196.478 179.794 196.617 180.369 196.617 181.051C196.617 181.837 196.411 182.547 195.999 183.182C195.592 183.816 194.996 184.321 194.21 184.695C193.428 185.069 192.479 185.256 191.362 185.256C190.32 185.256 189.418 185.088 188.656 184.751C187.898 184.415 187.302 183.946 186.866 183.345C186.435 182.744 186.191 182.045 186.134 181.25H187.953C188 181.799 188.185 182.254 188.507 182.614C188.833 182.969 189.245 183.234 189.742 183.409C190.244 183.58 190.784 183.665 191.362 183.665C192.034 183.665 192.638 183.556 193.173 183.338C193.708 183.116 194.132 182.808 194.444 182.415C194.757 182.017 194.913 181.553 194.913 181.023C194.913 180.54 194.778 180.147 194.508 179.844C194.238 179.541 193.883 179.295 193.443 179.105C193.002 178.916 192.526 178.75 192.015 178.608L190.225 178.097C189.089 177.77 188.189 177.304 187.526 176.697C186.864 176.091 186.532 175.298 186.532 174.318C186.532 173.504 186.752 172.794 187.193 172.188C187.638 171.577 188.234 171.103 188.982 170.767C189.735 170.426 190.576 170.256 191.504 170.256C192.441 170.256 193.275 170.424 194.004 170.76C194.733 171.091 195.311 171.546 195.737 172.124C196.168 172.701 196.395 173.357 196.419 174.091H194.714Z" fill="#141414"/>
<path d="M286.167 162H237.833C235.164 162 233 164.239 233 167V189C233 191.761 235.164 194 237.833 194H286.167C288.836 194 291 191.761 291 189V167C291 164.239 288.836 162 286.167 162Z" fill="#F36FAB"/>
<path d="M252.539 185H248.05V170.455H252.738C254.149 170.455 255.356 170.746 256.36 171.328C257.364 171.906 258.133 172.737 258.668 173.821C259.203 174.901 259.471 176.193 259.471 177.699C259.471 179.214 259.201 180.518 258.661 181.612C258.121 182.701 257.335 183.539 256.303 184.126C255.271 184.709 254.016 185 252.539 185ZM249.812 183.438H252.425C253.628 183.438 254.625 183.205 255.415 182.741C256.206 182.277 256.796 181.617 257.184 180.76C257.572 179.903 257.766 178.883 257.766 177.699C257.766 176.525 257.575 175.514 257.191 174.666C256.808 173.814 256.235 173.161 255.472 172.706C254.71 172.247 253.761 172.017 252.624 172.017H249.812V183.438ZM270.38 174.091C270.295 173.371 269.949 172.812 269.343 172.415C268.737 172.017 267.994 171.818 267.113 171.818C266.469 171.818 265.906 171.922 265.423 172.131C264.944 172.339 264.57 172.625 264.3 172.99C264.035 173.355 263.903 173.769 263.903 174.233C263.903 174.621 263.995 174.955 264.18 175.234C264.369 175.509 264.611 175.739 264.904 175.923C265.198 176.103 265.505 176.252 265.827 176.371C266.149 176.484 266.445 176.577 266.715 176.648L268.192 177.045C268.571 177.145 268.993 177.282 269.457 177.457C269.925 177.633 270.373 177.872 270.799 178.175C271.23 178.473 271.585 178.857 271.864 179.325C272.144 179.794 272.283 180.369 272.283 181.051C272.283 181.837 272.077 182.547 271.665 183.182C271.258 183.816 270.662 184.321 269.876 184.695C269.094 185.069 268.145 185.256 267.028 185.256C265.986 185.256 265.084 185.088 264.322 184.751C263.564 184.415 262.968 183.946 262.532 183.345C262.101 182.744 261.857 182.045 261.8 181.25H263.619C263.666 181.799 263.851 182.254 264.173 182.614C264.499 182.969 264.911 183.234 265.408 183.409C265.91 183.58 266.45 183.665 267.028 183.665C267.7 183.665 268.304 183.556 268.839 183.338C269.374 183.116 269.798 182.808 270.11 182.415C270.423 182.017 270.579 181.553 270.579 181.023C270.579 180.54 270.444 180.147 270.174 179.844C269.904 179.541 269.549 179.295 269.109 179.105C268.668 178.916 268.192 178.75 267.681 178.608L265.891 178.097C264.755 177.77 263.855 177.304 263.192 176.697C262.53 176.091 262.198 175.298 262.198 174.318C262.198 173.504 262.418 172.794 262.859 172.188C263.304 171.577 263.9 171.103 264.648 170.767C265.401 170.426 266.242 170.256 267.17 170.256C268.107 170.256 268.941 170.424 269.67 170.76C270.399 171.091 270.977 171.546 271.403 172.124C271.834 172.701 272.061 173.357 272.085 174.091H270.38ZM276.941 170.455V185H275.179V170.455H276.941Z" fill="#141414"/>
<defs>
<filter id="filter0_d_28_62" x="0" y="0" width="428" height="63" filterUnits="userSpaceOnUse" color-interpolation-filters="sRGB">
<feFlood flood-opacity="0" result="BackgroundImageFix"/>
<feColorMatrix in="SourceAlpha" type="matrix" values="0 0 0 0 0 0 0 0 0 0 0 0 0 0 0 0 0 0 127 0" result="hardAlpha"/>
<feOffset dy="4"/>
<feGaussianBlur stdDeviation="2"/>
<feComposite in2="hardAlpha" operator="out"/>
<feColorMatrix type="matrix" values="0 0 0 0 0 0 0 0 0 0 0 0 0 0 0 0 0 0 0.25 0"/>
<feBlend mode="normal" in2="BackgroundImageFix" result="effect1_dropShadow_28_62"/>
<feBlend mode="normal" in="SourceGraphic" in2="effect1_dropShadow_28_62" result="shape"/>
</filter>
</defs>
</svg>